<svg id="Layer_1" enable-background="new 0 0 512.057 512.057" height="512" viewBox="0 0 512.057 512.057" width="512" xmlns="http://www.w3.org/2000/svg"><g><circle cx="256" cy="256.029" fill="#c8effd" r="256"/><path d="m437.02 75.009c-54.906-54.907-128.106-79.805-201.02-74.206 130.586 10.026 236 119.029 236 255.226 0 136.259-105.475 245.205-236 255.226 73.086 5.617 146.242-19.427 201.02-74.206 100.045-100.046 100.054-261.987 0-362.04z" fill="#a0e1fd"/><path d="m368 168.029v24c0 4.42-3.58 8-8 8h-32c-4.42 0-8-3.58-8-8v-16.61c-13.709-2.113-25.411-9.323-33.39-19.39-15.433 12.481-35.247 20-56.55 20h-38.06v24c0 4.42-3.58 8-8 8h-32c-4.42 0-8-3.58-8-8v-32c0-61.76 50.24-112 112-112s112 50.24 112 112z" fill="#595965"/><path d="m240 57.176c54.207 7.788 96 54.525 96 110.853v24c0 4.42-3.58 8-8 8h32c4.42 0 8-3.58 8-8v-24c0-68.175-60.581-120.538-128-110.853z" fill="#44454e"/><path d="m192 192.029v32c0 4.42-3.58 8-8 8h-16c-6.4 0-12.43-2.49-16.97-7.01-15.05-15.118-4.336-40.99 16.97-40.99h16c4.42 0 8 3.58 8 8z" fill="#ebb19c"/><path d="m400 372.029v30.64c0 2.221-.93 4.351-2.56 5.86-79.667 73.963-203.113 74.056-282.88 0-1.63-1.51-2.56-3.64-2.56-5.86v-30.64c0-37.5 30.5-68 68-68h36.8c3.8 0 7.08 2.68 7.84 6.41 3.01 14.83 16.2 25.59 31.36 25.59s28.35-10.76 31.36-25.59c.76-3.73 4.04-6.41 7.84-6.41h36.8c37.5 0 68 30.5 68 68z" fill="#79cb9c"/><path d="m332 304.029h-32c37.5 0 68 30.5 68 68v30.64c0 2.221-.93 4.351-2.56 5.86-34.624 32.146-78.673 51.309-125.44 54.88 58.263 4.453 114.939-15.422 157.44-54.88 1.63-1.51 2.56-3.64 2.56-5.86v-30.64c0-37.5-30.5-68-68-68z" fill="#63ac7d"/><path d="m368 200.029c0 13.261-10.702 24-24 24h-16c-4.42 0-8-3.58-8-8v-32c0-4.42 3.58-8 8-8h16c13.23 0 24 10.769 24 24z" fill="#e58d72"/><path d="m304 275.899c0 29.795.32 31.368-.96 37.71-4.52 22.27-24.3 38.42-47.04 38.42s-42.52-16.15-47.04-38.41c-1.3-6.46-.96-8.078-.96-37.72 0-6.381 7.133-10.209 12.45-6.65 21.267 14.238 49.414 14.519 71.1 0 5.301-3.549 12.45.251 12.45 6.65z" fill="#ebb19c"/><path d="m291.55 269.248c-21.471 14.366-49.606 14.39-71.1 0-5.301-3.548-12.45.252-12.45 6.65v20.12c13.126 9.956 29.977 16.046 48.158 16.01 6.789-.013 10.996 7.373 7.371 13.113-6.091 9.646-14.869 21.039-23.529 24.12 27.483 9.774 57.281-7.278 63.04-35.653 1.259-6.235.96-7.263.96-37.71 0-6.38-7.133-10.208-12.45-6.65z" fill="#e58d72"/><path d="m336 168.029v48c0 26.75-13.29 51.62-35.55 66.52-52.979 35.481-124.45-2.623-124.45-66.52v-48c0-4.42 3.58-8 8-8h46.06c20.084 0 38.752-8.112 52.28-21.66 1.7-1.689 4.06-2.54 6.45-2.3 4.527.436 5.993 3.719 8.55 7.55 6.826 10.25 18.337 16.41 30.66 16.41 4.42 0 8 3.58 8 8z" fill="#ebb19c"/><path d="m334.82 163.849c-1.407-2.286-3.879-3.82-6.95-3.82-11.912 0-23.572-5.962-30.53-16.41-2.554-3.826-4.021-7.113-8.55-7.55-4.215-.424-6.317 2.246-7.95 3.75-13.048 12.513-31.059 20.21-51.72 20.21h-45.12c-4.42 0-8 3.58-8 8v8h53.16c22.147 0 41.446-7.202 57.45-20 4.477 5.67 10.329 10.604 17.39 14.24v45.76c0 38.311-27.091 70.904-64 78.38 49.473 10.125 96-27.689 96-78.38 0-52.235.427-49.61-1.18-52.18z" fill="#e58d72"/></g></svg>